<?xml version="1.0" encoding="utf-8"?>
<!-- Svg Vector Icons : http://www.onlinewebfonts.com/icon -->
<!DOCTYPE svg PUBLIC "-//W3C//DTD SVG 1.1//EN" "http://www.w3.org/Graphics/SVG/1.1/DTD/svg11.dtd">
<svg version="1.1" xmlns="http://www.w3.org/2000/svg" xmlns:xlink="http://www.w3.org/1999/xlink" x="0px" y="0px" viewBox="0 0 1000 1000" enable-background="new 0 0 1000 1000" xml:space="preserve">
<metadata> Svg Vector Icons : http://www.onlinewebfonts.com/icon </metadata>
<g><path d="M500,326.3c-96,0-174.1,78-174.1,173.7c0,95.8,78.1,173.7,174.1,173.7S674.1,595.8,674.1,500C674.1,404.2,596,326.3,500,326.3z M500,604.6c-57.7,0-104.7-47-104.7-104.6c0-57.7,46.9-104.6,104.7-104.6c57.7,0,104.6,47,104.6,104.6C604.6,557.7,557.7,604.6,500,604.6z"/><path d="M568.9,990H434.4c-50.4,0-88.4-34.9-88.4-81.2v-29.1c-0.3-0.1-0.6-0.3-0.9-0.4l-19.7,20.1c-16.3,16.3-38.1,25.3-61.2,25.3c-23.2,0-45.1-9.1-61.5-25.5l-95.1-95.4c-33.9-33.9-34-89-0.2-123.1l19-19.7c-1-2.4-1.9-4.7-2.8-7.1H98.4C48,654,10,619.1,10,572.8V438.3c0-49.2,41.3-92.3,88.4-92.3h23.9c0.3-0.8,0.7-1.5,1-2.3l-15.7-14.5c-33.8-33.8-33.9-88.9-0.1-122.7l94.9-95c16.4-16.4,38.2-25.4,61.3-25.4c23.1,0,44.9,9,61.2,25.4l0.2,0.2l16.1,16.3c1.6-0.7,3.2-1.3,4.8-2v-23.7c0-49.2,41.3-92.3,88.4-92.3h134.4c23.7,0,46.6,11.2,62.8,30.7c14.2,17.1,22.3,39.6,22.3,61.6v25.8c1.6,0.7,3.2,1.3,4.8,2l19.3-18.9c16.4-16.3,38.2-25.3,61.4-25.3c23.1,0,44.8,9,61.2,25.3l95,94.6c16.4,16.4,25.5,38.1,25.5,61c0,23-9,44.6-25.4,61l-0.5,0.5L876.8,346h28.1c23.8,0,46.6,11.2,62.8,30.7c14.2,17.1,22.3,39.6,22.3,61.6v134.4c0,47.1-35.8,81.2-85.1,81.2h-31c-0.4,1.1-0.8,2.1-1.3,3.2l23.5,25.1c33.3,33.8,33.1,88.5-0.5,122.2l-95.2,95.1C784,915.9,762.2,925,739,925c-23.2,0-45-9-61.4-25.3l-22.7-22.5c-0.3,0.1-0.6,0.3-0.9,0.4v31.2C654,955.8,618.2,990,568.9,990z M329.3,791.5l23.5,11.4c15.1,7.3,26.6,12.4,40.2,16.6l25.7,7.9v81.4c0,8.4,15.6,8.5,15.7,8.5h134.4c12.4,0,12.4-5.5,12.4-8.5v-83.4l25.5-8c12.9-4,24.3-8.8,39.6-16.4l23.3-11.6l59.3,58.7c3.6,3.6,7.8,4.1,10,4.1c2.2,0,6.5-0.5,10-4.1l95.2-95c5.5-5.5,5.5-14.4,0-19.9l-0.8-0.9l-57.5-61.5l11.2-22.6c6-12.1,11.5-26.1,16.3-41.4l7.9-25.6h83.6c12.4,0,12.4-5.5,12.4-8.5V438.3c0-9.7-7.2-19.6-12.4-19.6h-81.8l-7.9-25.7c-3.6-11.9-8-20.8-13.6-32.2c-0.9-1.9-1.9-3.8-2.8-5.8l-11.5-23.7l57.1-55c3.3-3.4,3.9-7,3.9-9.4c0-2.5-0.7-6.2-4.1-9.6l-95-94.6c-3.6-3.6-7.7-4.1-9.8-4.1c-2.2,0-6.5,0.5-10.1,4.2l-0.3,0.3L673,218l-23.3-12c-13-6.7-27.7-12.8-43.7-18.2l-24.7-8.4v-77.1c0-9.7-7.2-19.6-12.4-19.6H434.4c-6.2,0-15.7,10.5-15.7,19.6v75.2l-24.8,8.3c-14.9,5-29.4,11-44.4,18.5L325.9,216l-52.4-53.1c-3.6-3.5-7.7-4.1-9.8-4.1c-2.1,0-6.3,0.5-9.8,4.1L159,258c-5.3,5.4-5.5,14-0.3,19.5l53.8,49.4l-12.2,24.5c-6.9,13.8-13.5,27.4-18.6,42.6l-8.3,24.8H98.4c-6.2,0-15.7,10.5-15.7,19.6v134.4c0,8.4,15.6,8.5,15.7,8.5h76.7l8.4,24.6c4.4,12.8,11,31.6,18.4,46l11.9,23.1l-54.7,56.8c-5.5,5.5-5.5,15.1,0,20.6l95.1,95.4c3.6,3.6,7.9,4.2,10.1,4.2c2.6,0,6.4-0.7,9.7-3.9L329.3,791.5z"/></g>
</svg>